<!-- icon666.com - MILLIONS OF FREE VECTOR ICONS --><svg version="1.1" id="Capa_1" xmlns="http://www.w3.org/2000/svg" xmlns:xlink="http://www.w3.org/1999/xlink" x="0px" y="0px" viewBox="0 0 427.904 427.904" style="enable-background:new 0 0 427.904 427.904;" xml:space="preserve"><g><g><path d="M425.963,140.292c-4.72-29.04-21.76-51.6-52.08-70.56l-0.76-0.28h-0.76h-13.04c-1.352-0.006-2.616,0.671-3.36,1.8 c-0.36,0.56-11.6,17.92-28.56,42.24c-8.04-15.76-22.32-29.56-45-43.76h-0.28l-0.76-0.28h-0.76h-13.04 c-1.352-0.006-2.616,0.671-3.36,1.8c-1.2,1.88-120.88,186.76-175.56,201.4c-24.383,4.147-47.43,14.032-67.24,28.84 c-23.08,16.8-22.68,32-20.36,39.48c3.175,9.893,12.18,16.758,22.56,17.2c5.72,0,17.12,0.28,29.76,0.28 c24.44,0,53.56-0.28,55.36-0.28c0.714-0.017,1.409-0.239,2-0.64c1.466,0.372,2.968,0.587,4.48,0.64c5.72,0,21.56,0.28,40.28,0.28 c36.36,0,83.4-0.28,86.6-0.28c2.08,0,50.36-5.36,64-44.6c7.32-21.16,28.96-57.24,55.28-86.12l0.32,126.72c0,2.209,1.791,4,4,4 h18.16c2.076,0.008,3.813-1.573,4-3.64c0-0.56,5.6-58.64,16.36-115.24c3.734-18.547,8.732-36.816,14.96-54.68 C426.163,179.892,430.683,169.332,425.963,140.292z M361.323,77.052h3.48c-16.8,27.64-86.4,141.76-102.92,162.92 c-18.8,24-27.64,32-42.88,32.24h-20C256.963,235.772,349.123,95.812,361.323,77.052z M269.883,77.052h3.44 c-16.8,27.64-86.4,141.76-103,162.92c-18.84,24-27.64,32-42.88,32.24h-20C165.363,235.772,257.523,95.812,269.883,77.052z M26.123,308.052c18.791-14.127,40.626-23.661,63.76-27.84c2.52,0,20.96,0.24,37.72,0c19.48-0.36,30.4-11.56,49.04-35.32 c17.72-22.48,91.32-143.48,105.12-166.28c20.76,13.72,33.56,26.88,40.12,41.24c0.097,0.188,0.218,0.363,0.36,0.52 c-40,56.44-105.28,142.12-141.8,152c-24.436,4.248-47.503,14.273-67.28,29.24c-18.04,13.12-21.68,25.2-21.36,33.48H8.043 C7.563,326.572,13.963,316.932,26.123,308.052z M23.883,350.172c-5.221-0.273-10.028-2.927-13.04-7.2h82.6 c1.109,2.679,2.68,5.143,4.64,7.28C78.323,350.372,36.483,350.612,23.883,350.172z M241.883,350.172h-0.2 c-1.08,0-109.6,0.56-126.2,0c-5.221-0.273-10.028-2.927-13.04-7.2h164.24C258.791,346.513,250.444,348.936,241.883,350.172z M380.283,350.172h-10.6v-7.2h11.36C380.723,345.932,380.483,348.372,380.283,350.172z M396.203,237.732 c-7.12,37.32-12,75.24-14.48,97.16h-12.24l-0.28-115.36c0,0,0-0.28,0-0.44c11.539-12.16,25.066-22.265,40-29.88 C403.961,205.128,399.62,221.327,396.203,237.732z M411.203,179.732c-48.28,18.52-100.48,95.6-112.84,131.4 c-3.404,9.653-9.687,18.029-18,24H99.643c-0.44-8.52,5.92-18.16,18.08-27.04c18.757-14.059,40.533-23.55,63.6-27.72 c2.48,0,20.92,0.28,37.68,0c19.48-0.36,30.4-11.56,49.04-35.32c17.72-22.48,91.28-143.44,105.12-166.28 c26,17.16,40.72,37.8,44.72,62.96C423.363,175.372,415.643,178.132,411.203,179.732z"></path></g></g><g><g><path d="M386.643,102.252c-1.614-1.509-4.145-1.424-5.654,0.189s-1.424,4.145,0.189,5.654c0.121,0.114,0.25,0.219,0.384,0.317 c11.467,9.228,18.179,23.121,18.28,37.84c0,2.209,1.791,4,4,4c2.209,0,4-1.791,4-4 C407.759,129.142,399.972,112.98,386.643,102.252z"></path></g></g></svg>